HIERARCHY
ROOT joint_0
{
	OFFSET 0.000000 0.000000 0.000000
	CHANNELS 6 Xposition Yposition Zposition Zrotation Yrotation Xrotation 
	JOINT joint_1
	{
		OFFSET 14.113007 -2.961990 123.953979
		CHANNELS 3 Zrotation Yrotation Xrotation
		JOINT joint_2
		{
			OFFSET 0.764000 -2.434006 113.871948
			CHANNELS 3 Zrotation Yrotation Xrotation
			JOINT joint_3
			{
				OFFSET 0.186996 -2.169998 113.753052
				CHANNELS 3 Zrotation Yrotation Xrotation
				JOINT joint_4
				{
					OFFSET 16.096001 -2.720001 160.853027
					CHANNELS 3 Zrotation Yrotation Xrotation
					JOINT joint_5
					{
						OFFSET 34.392006 -0.188995 92.567017
						CHANNELS 3 Zrotation Yrotation Xrotation
						End Site
						{
							OFFSET 0.000000 0.000000 0.000000
						}
					}
				}
				JOINT joint_6
				{
					OFFSET 9.183998 -36.684006 89.597046
					CHANNELS 3 Zrotation Yrotation Xrotation
					JOINT joint_7
					{
						OFFSET 0.486000 -164.365997 -28.984009
						CHANNELS 3 Zrotation Yrotation Xrotation
						JOINT joint_8
						{
							OFFSET 38.899002 -34.967010 -291.651978
							CHANNELS 3 Zrotation Yrotation Xrotation
							JOINT joint_9
							{
								OFFSET 41.714005 -45.890991 -258.857056
								CHANNELS 3 Zrotation Yrotation Xrotation
								End Site
								{
									OFFSET 0.000000 0.000000 0.000000
								}
							}
						}
					}
				}
				JOINT joint_10
				{
					OFFSET 8.867004 33.650002 90.817993
					CHANNELS 3 Zrotation Yrotation Xrotation
					JOINT joint_11
					{
						OFFSET 0.018997 164.299999 -29.368042
						CHANNELS 3 Zrotation Yrotation Xrotation
						JOINT joint_12
						{
							OFFSET 29.440994 30.887997 -293.216919
							CHANNELS 3 Zrotation Yrotation Xrotation
							JOINT joint_13
							{
								OFFSET 46.174011 54.490005 -256.422058
								CHANNELS 3 Zrotation Yrotation Xrotation
								End Site
								{
									OFFSET 0.000000 0.000000 0.000000
								}
							}
						}
					}
				}
			}
		}
	}
	JOINT joint_14
	{
		OFFSET -2.264000 -89.466995 -116.150024
		CHANNELS 3 Zrotation Yrotation Xrotation
		JOINT joint_15
		{
			OFFSET -16.400993 -17.452988 -493.781982
			CHANNELS 3 Zrotation Yrotation Xrotation
			JOINT joint_16
			{
				OFFSET -50.497004 -13.404022 -424.754013
				CHANNELS 3 Zrotation Yrotation Xrotation
				JOINT joint_17
				{
					OFFSET 198.546007 -19.341003 -89.309000
					CHANNELS 3 Zrotation Yrotation Xrotation
					End Site
					{
						OFFSET 0.000000 0.000000 0.000000
					}
				}
			}
		}
	}
	JOINT joint_18
	{
		OFFSET -0.867996 96.016006 -110.817993
		CHANNELS 3 Zrotation Yrotation Xrotation
		JOINT joint_19
		{
			OFFSET -10.130997 24.658998 -493.645020
			CHANNELS 3 Zrotation Yrotation Xrotation
			JOINT joint_20
			{
				OFFSET -48.871004 19.434999 -424.714005
				CHANNELS 3 Zrotation Yrotation Xrotation
				JOINT joint_21
				{
					OFFSET 195.579996 24.926001 -94.327003
					CHANNELS 3 Zrotation Yrotation Xrotation
					End Site
					{
						OFFSET 0.000000 0.000000 0.000000
					}
				}
			}
		}
	}
}
MOTION
Frames: 15
Frame Time: 0.016667
242.418000 -217.149000 1148.280030 -7.347579 1.825095 -2.481140 -0.173513 1.930159 1.336927 0.112657 -0.178832 -0.233111 0.141732 0.397117 0.224731 -0.467975 -3.503737 1.245590 0.000000 0.000000 0.000000 1.163630 6.425853 -0.254859 0.261597 6.628033 2.218561 -0.305397 5.453566 4.596731 0.000000 0.000000 0.000000 -0.297185 5.233932 -1.041219 0.894190 5.417845 2.193857 0.176033 6.332810 -8.806402 0.000000 0.000000 0.000000 0.512448 4.117764 -1.960490 0.794403 4.798217 0.813529 0.870906 0.064142 0.378347 0.000000 0.000000 0.000000 0.140443 -20.574980 9.508675 0.341159 45.247757 -1.245568 -5.744076 8.118946 -3.491384 0.000000 0.000000 0.000000 
259.521000 -217.947010 1147.936040 -7.709094 2.241090 -2.776388 -0.031273 2.709798 1.754874 0.455343 -0.344588 -0.338625 0.514691 0.489061 0.253547 -0.452225 -3.578706 1.180535 0.000000 0.000000 0.000000 1.474348 6.598540 -0.549874 0.307714 6.828519 1.979298 -0.222192 5.117378 4.821634 0.000000 0.000000 0.000000 0.037074 5.211953 -0.959548 0.745316 5.306022 2.203482 -0.019707 5.781774 -9.002182 0.000000 0.000000 0.000000 0.563992 4.662658 -1.833287 1.062413 4.485983 0.869180 1.099198 0.383358 0.503063 0.000000 0.000000 0.000000 0.935232 -24.914462 9.405747 0.078718 50.812411 -0.629084 -7.588945 11.626990 -4.644640 0.000000 0.000000 0.000000 
278.362000 -218.616000 1146.797970 -8.136992 2.641207 -2.957339 0.193546 3.229905 1.959317 0.831451 -0.481848 -0.395004 0.920001 0.562119 0.263613 -0.451469 -3.545041 1.158816 0.000000 0.000000 0.000000 2.034718 6.918162 -0.744763 0.348430 7.206659 1.522650 -0.042308 4.572371 5.366697 0.000000 0.000000 0.000000 0.317875 5.282532 -0.857755 0.582063 5.296328 2.340741 -0.280902 5.094033 -9.412041 0.000000 0.000000 0.000000 0.534548 5.497660 -1.841021 1.297837 3.798952 0.869491 1.305081 0.720168 0.619273 0.000000 0.000000 0.000000 1.921547 -28.356665 8.954727 0.155720 54.722371 -0.127078 -8.511088 11.908572 -4.964090 0.000000 0.000000 0.000000 
298.470000 -219.061000 1145.074950 -8.475175 3.094338 -3.017899 0.456798 3.489402 1.961568 1.183032 -0.550632 -0.380277 1.289222 0.636649 0.261424 -0.457875 -3.425693 1.158205 0.000000 0.000000 0.000000 2.716902 7.316008 -0.867772 0.383215 7.674900 0.905912 0.202953 3.840869 6.071594 0.000000 0.000000 0.000000 0.569643 5.378109 -0.762624 0.409743 5.318695 2.579953 -0.581500 4.326564 -9.955809 0.000000 0.000000 0.000000 0.414225 6.458701 -1.999580 1.465576 2.914347 0.860580 1.457401 1.071359 0.713692 0.000000 0.000000 0.000000 2.818826 -31.396328 8.215122 0.320582 57.599195 0.153823 -8.895900 10.178411 -4.805994 0.000000 0.000000 0.000000 
319.052000 -219.251010 1143.224980 -8.662076 3.594719 -3.038554 0.716190 3.647255 1.897120 1.480890 -0.592387 -0.346488 1.593089 0.692653 0.255885 -0.465222 -3.214779 1.163855 0.000000 0.000000 0.000000 3.232442 7.588535 -0.888393 0.359169 8.000400 0.212570 0.369587 3.321582 6.552532 0.000000 0.000000 0.000000 0.742937 5.406173 -0.770527 0.276763 5.296530 2.892601 -0.819979 3.716211 -10.357777 0.000000 0.000000 0.000000 0.321943 7.251736 -2.210012 1.586884 2.355057 0.867005 1.570138 1.418636 0.790834 0.000000 0.000000 0.000000 3.294123 -34.115449 7.467297 0.234041 58.932653 -0.018982 -9.481315 8.028006 -4.703238 0.000000 0.000000 0.000000 
339.662990 -219.217000 1141.503050 -8.642289 4.176204 -3.027020 0.977485 3.733139 1.811462 1.715339 -0.621982 -0.325427 1.817369 0.710667 0.249814 -0.472626 -2.843789 1.176108 0.000000 0.000000 0.000000 3.472115 7.634788 -0.763447 0.228757 8.076023 -0.618249 0.395939 3.264171 6.751077 0.000000 0.000000 0.000000 0.781952 5.313842 -0.957791 0.211070 5.189824 3.329874 -0.957705 3.362477 -10.512972 0.000000 0.000000 0.000000 0.301576 7.747733 -2.430452 1.649567 2.278965 0.890662 1.625975 1.762327 0.844661 0.000000 0.000000 0.000000 3.203834 -36.599490 6.845444 -0.285872 58.134005 -0.782272 -10.580618 6.107489 -4.883010 0.000000 0.000000 0.000000 
360.748990 -218.929000 1139.654050 -8.485042 4.791930 -2.990914 1.244305 3.745220 1.706105 1.898675 -0.637562 -0.310037 1.977399 0.710442 0.238726 -0.484794 -2.377655 1.207576 0.000000 0.000000 0.000000 3.561425 7.540252 -0.556973 0.030036 8.003326 -1.539215 0.341491 3.457850 6.768814 0.000000 0.000000 0.000000 0.741665 5.156253 -1.222747 0.183672 5.039103 3.800872 -1.034670 3.158141 -10.516481 0.000000 0.000000 0.000000 0.335194 8.093240 -2.655845 1.670136 2.524750 0.920452 1.640860 2.107859 0.882439 0.000000 0.000000 0.000000 2.651085 -38.617422 6.366172 -1.118642 55.400864 -2.004248 -11.798323 4.214595 -5.169102 0.000000 0.000000 0.000000 
382.846980 -218.258000 1137.364010 -8.294492 5.316364 -3.013002 1.455331 3.792122 1.658624 2.031590 -0.649193 -0.307772 2.089131 0.718756 0.230357 -0.501005 -2.010426 1.251709 0.000000 0.000000 0.000000 3.554632 7.367408 -0.427690 -0.159962 7.847601 -2.291739 0.241587 3.659471 6.477177 0.000000 0.000000 0.000000 0.739231 5.011218 -1.386524 0.155270 4.894765 4.040624 -1.068890 3.022497 -10.378482 0.000000 0.000000 0.000000 0.452664 8.410104 -2.829532 1.709235 3.142625 0.957991 1.676792 2.421201 0.923868 0.000000 0.000000 0.000000 1.727387 -39.810441 6.103927 -2.129538 51.443775 -3.374369 -12.868542 2.246834 -5.418341 0.000000 0.000000 0.000000 
405.989990 -217.076000 1134.691040 -8.021703 5.797676 -3.092724 1.585853 3.877152 1.646054 2.091407 -0.628854 -0.290535 2.131001 0.763109 0.231192 -0.518751 -1.886322 1.296233 0.000000 0.000000 0.000000 3.406651 7.081894 -0.458424 -0.321332 7.566523 -2.770622 0.080473 3.852071 5.740171 0.000000 0.000000 0.000000 0.832926 4.885975 -1.359925 0.099418 4.750294 3.873455 -1.065449 2.877063 -10.015721 0.000000 0.000000 0.000000 0.666637 8.701838 -2.948723 1.764700 4.043655 1.012822 1.739327 2.773843 0.976337 0.000000 0.000000 0.000000 0.194108 -40.044774 6.114397 -3.585457 45.811265 -4.793086 -14.032635 -0.689234 -5.612872 0.000000 0.000000 0.000000 
430.144990 -215.511990 1131.577030 -7.852930 6.127602 -3.271365 1.715748 4.116523 1.728180 2.139282 -0.673850 -0.303503 2.175045 0.820470 0.239235 -0.536739 -1.858728 1.340939 0.000000 0.000000 0.000000 3.161864 6.710910 -0.544040 -0.470187 7.189519 -3.094899 -0.129114 4.048288 4.680223 0.000000 0.000000 0.000000 0.967604 4.776488 -1.235792 0.044478 4.614865 3.476371 -1.016893 2.792714 -9.503933 0.000000 0.000000 0.000000 1.022052 9.002908 -2.997684 1.885726 5.308126 1.087811 1.881465 3.179738 1.062630 0.000000 0.000000 0.000000 -1.661844 -39.162521 6.379473 -5.270948 38.308554 -5.924812 -14.597081 -3.391297 -5.599679 0.000000 0.000000 0.000000 
455.758000 -213.825000 1127.541020 -7.913464 6.121301 -3.573282 1.864764 4.430979 1.953099 2.183109 -0.804359 -0.386572 2.227374 0.858149 0.246829 -0.554344 -1.677941 1.390718 0.000000 0.000000 0.000000 3.004252 6.406332 -0.547794 -0.583013 6.886311 -3.345021 -0.308052 4.055773 3.546470 0.000000 0.000000 0.000000 1.077482 4.739871 -1.106531 0.030493 4.560147 3.117606 -0.922793 2.924904 -9.088432 0.000000 0.000000 0.000000 1.502813 9.365461 -2.975103 2.090012 7.211785 1.208115 2.127309 3.557491 1.181482 0.000000 0.000000 0.000000 -3.076766 -37.406517 6.598170 -6.265586 31.269786 -6.467730 -13.888330 -3.967899 -5.286311 0.000000 0.000000 0.000000 
483.696010 -212.024990 1122.040040 -7.920731 5.864269 -3.880600 1.940397 4.338018 2.136845 2.086234 -0.818920 -0.410106 2.129213 0.857806 0.256744 -0.565334 -1.147954 1.434136 0.000000 0.000000 0.000000 3.113413 6.285565 -0.407950 -0.645438 6.800526 -3.491323 -0.453421 3.811539 2.287013 0.000000 0.000000 0.000000 1.202466 4.868012 -0.923861 0.050699 4.669334 2.779415 -0.789763 3.333192 -8.888288 0.000000 0.000000 0.000000 2.031284 9.892260 -2.996294 2.253800 9.604444 1.498680 2.390394 4.103624 1.312235 0.000000 0.000000 0.000000 -3.957518 -34.842446 6.442655 -6.120828 25.501699 -6.925737 -11.890865 -1.977860 -4.736992 0.000000 0.000000 0.000000 
513.091980 -210.101000 1115.616940 -7.953126 5.399618 -4.175930 1.971622 4.064074 2.252682 1.916751 -0.779383 -0.393029 1.949349 0.829566 0.263291 -0.571704 -0.464799 1.471252 0.000000 0.000000 0.000000 3.301269 6.231742 -0.185010 -0.679077 6.791071 -3.563786 -0.566854 3.360554 0.962695 0.000000 0.000000 0.000000 1.298342 5.069073 -0.723390 0.111160 4.858312 2.463310 -0.610470 3.966839 -8.780380 0.000000 0.000000 0.000000 2.653086 10.410300 -3.048459 2.419073 12.536927 1.899698 2.709221 4.885476 1.477898 0.000000 0.000000 0.000000 -4.366916 -31.791947 5.982594 -5.217735 20.812334 -7.338133 -9.431438 0.899922 -4.097800 0.000000 0.000000 0.000000 
541.780030 -208.281010 1109.417970 -8.042139 4.814464 -4.359624 1.962703 3.938894 2.251184 1.758286 -0.767292 -0.428106 1.779077 0.796631 0.240164 -0.585902 0.040456 1.525953 0.000000 0.000000 0.000000 3.219051 6.043010 0.078604 -0.705612 6.603596 -3.732438 -0.571297 2.675772 -0.002903 0.000000 0.000000 0.000000 1.183884 5.121769 -0.731367 0.268065 4.944505 2.481425 -0.364951 4.822584 -8.649418 0.000000 0.000000 0.000000 3.301256 10.336494 -3.127091 2.643827 16.588889 2.251649 3.093367 5.650697 1.657663 0.000000 0.000000 0.000000 -4.338596 -29.628584 5.352578 -4.173457 19.081689 -7.431371 -7.733787 2.088607 -3.544127 0.000000 0.000000 0.000000 
568.862980 -206.647000 1103.386960 -8.127764 4.215043 -4.169106 1.868151 3.831326 1.695107 1.611287 -0.678921 -0.379040 1.625638 0.762488 0.168629 -0.631287 0.198661 1.656172 0.000000 0.000000 0.000000 2.548757 5.554127 0.504121 -0.758773 6.024410 -4.261720 -0.441817 1.831243 -0.359317 0.000000 0.000000 0.000000 0.678681 4.938648 -1.163538 0.569898 4.882765 3.225664 -0.053148 5.985979 -8.648484 0.000000 0.000000 0.000000 3.955445 9.285018 -3.524323 2.973724 22.306206 2.574405 3.557939 6.691610 1.873433 0.000000 0.000000 0.000000 -4.027930 -29.457056 4.456999 -3.228782 22.463999 -6.940617 -7.307155 -0.024720 -3.086312 0.000000 0.000000 0.000000 
